<?xml version="1.0" encoding="UTF-8"?>
<svg id="Layer_2" data-name="Layer 2" xmlns="http://www.w3.org/2000/svg" xmlns:xlink="http://www.w3.org/1999/xlink" viewBox="0 0 429.26 284.16">
  <defs>
    <style>
      .cls-1 {
        fill: #fcfdff;
      }

      .cls-2 {
        fill: url(#Gradiente_sem_nome_4);
      }

      .cls-3 {
        fill: url(#Gradiente_sem_nome_2);
      }

      .cls-4 {
        fill: url(#Gradiente_sem_nome_8);
      }

      .cls-5 {
        fill: url(#Gradiente_sem_nome_3);
      }

      .cls-6 {
        fill: url(#Gradiente_sem_nome_2-2);
      }

      .cls-7 {
        fill: url(#Gradiente_sem_nome_3-2);
      }

      .cls-8 {
        fill: url(#Gradiente_sem_nome_4-2);
      }

      .cls-9 {
        fill: url(#Gradiente_sem_nome_8-2);
      }

      .cls-10 {
        clip-path: url(#clippath);
      }
    </style>
    <clipPath id="clippath">
      <rect class="cls-1" width="429.26" height="284.16"/>
    </clipPath>
    <linearGradient id="Gradiente_sem_nome_4" data-name="Gradiente sem nome 4" x1="-1094.19" y1="-2429.81" x2="-1018.49" y2="-2429.81" gradientTransform="translate(-1420.49 2137.11) rotate(67.57)" gradientUnits="userSpaceOnUse">
      <stop offset="0" stop-color="#fdfdfd"/>
      <stop offset=".64" stop-color="#5b79e8"/>
      <stop offset="1" stop-color="#0735dd"/>
    </linearGradient>
    <linearGradient id="Gradiente_sem_nome_4-2" data-name="Gradiente sem nome 4" x1="-3258.99" y1="2804.48" x2="-3178.79" y2="2804.48" gradientTransform="translate(-3804.7 2137.11) rotate(112.43) scale(1 -1)" xlink:href="#Gradiente_sem_nome_4"/>
    <linearGradient id="Gradiente_sem_nome_2" data-name="Gradiente sem nome 2" x1="-2749.83" y1="3253.06" x2="-2701.42" y2="3253.06" gradientTransform="translate(-3721.29 2190.16) rotate(101.51) scale(1 -1)" gradientUnits="userSpaceOnUse">
      <stop offset="0" stop-color="#fff"/>
      <stop offset=".1" stop-color="#e0f1fb"/>
      <stop offset=".44" stop-color="#81c9f1"/>
      <stop offset=".71" stop-color="#3babe9"/>
      <stop offset=".9" stop-color="#1099e4"/>
      <stop offset="1" stop-color="#0092e3"/>
    </linearGradient>
    <linearGradient id="Gradiente_sem_nome_2-2" data-name="Gradiente sem nome 2" x1="-2093.17" y1="-2338.57" x2="-2047.49" y2="-2338.57" gradientTransform="translate(-1828.66 2344.09) rotate(87.52)" xlink:href="#Gradiente_sem_nome_2"/>
    <linearGradient id="Gradiente_sem_nome_3" data-name="Gradiente sem nome 3" x1="358.18" y1="15.31" x2="367.41" y2="15.31" gradientUnits="userSpaceOnUse">
      <stop offset="0" stop-color="#fff"/>
      <stop offset="0" stop-color="#fbfdfe"/>
      <stop offset=".13" stop-color="#c1e4f8"/>
      <stop offset=".25" stop-color="#8ecef2"/>
      <stop offset=".37" stop-color="#62bced"/>
      <stop offset=".5" stop-color="#3eace9"/>
      <stop offset=".62" stop-color="#23a1e6"/>
      <stop offset=".74" stop-color="#0f98e4"/>
      <stop offset=".87" stop-color="#0393e3"/>
      <stop offset="1" stop-color="#0092e3"/>
    </linearGradient>
    <linearGradient id="Gradiente_sem_nome_3-2" data-name="Gradiente sem nome 3" x1="84.85" y1="25.19" x2="94.07" y2="25.19" xlink:href="#Gradiente_sem_nome_3"/>
    <linearGradient id="Gradiente_sem_nome_8" data-name="Gradiente sem nome 8" x1="319.72" y1="28.56" x2="332.99" y2="28.56" gradientUnits="userSpaceOnUse">
      <stop offset="0" stop-color="#dcf2fd"/>
      <stop offset=".2" stop-color="#a8c4f5"/>
      <stop offset=".48" stop-color="#6387ea"/>
      <stop offset=".72" stop-color="#315ae3"/>
      <stop offset=".9" stop-color="#123fde"/>
      <stop offset="1" stop-color="#0735dd"/>
    </linearGradient>
    <linearGradient id="Gradiente_sem_nome_8-2" data-name="Gradiente sem nome 8" x1="37.66" y1="14.43" x2="46.92" y2="14.43" xlink:href="#Gradiente_sem_nome_8"/>
  </defs>
  <g id="Layer_24" data-name="Layer 24">
    <g>
      <rect class="cls-1" width="429.26" height="284.16"/>
      <g class="cls-10">
        <g>
          <g>
            <path class="cls-2" d="M432.01,270.25c-.41,0-.82-.09-1.2-.27-.69-.32-1.21-.89-1.46-1.6l-2.38-6.58c-3.75.58-7.51.41-11.19-.51l-2.97,6.33c-.32.69-.89,1.21-1.6,1.46-.71.26-1.48.22-2.17-.1l-4.84-2.27c-.69-.32-1.21-.89-1.46-1.6-.26-.71-.22-1.48.1-2.17l2.97-6.33c-3.06-2.24-5.6-5.02-7.55-8.27l-6.58,2.38c-1.47.53-3.1-.23-3.63-1.7l-1.82-5.02c-.26-.71-.22-1.48.1-2.17s.89-1.21,1.6-1.46l6.58-2.38c-.58-3.75-.41-7.51.51-11.19l-6.33-2.97c-.69-.32-1.21-.89-1.46-1.6-.26-.71-.22-1.48.1-2.17l2.27-4.84c.32-.69.89-1.21,1.6-1.46.71-.26,1.48-.22,2.17.1l6.33,2.97c2.24-3.06,5.02-5.6,8.27-7.55l-2.38-6.58c-.53-1.47.23-3.1,1.7-3.63l5.02-1.82c1.47-.53,3.1.23,3.63,1.7l2.38,6.58c3.75-.58,7.51-.41,11.19.51l2.97-6.33c.32-.69.89-1.21,1.6-1.46.71-.26,1.48-.22,2.17.1l4.84,2.27c1.42.66,2.03,2.36,1.37,3.77l-2.97,6.33c3.06,2.24,5.6,5.02,7.55,8.27l6.58-2.38c.71-.26,1.48-.22,2.17.1.69.32,1.21.89,1.46,1.6l1.82,5.02c.53,1.47-.23,3.1-1.7,3.63l-6.58,2.38c.58,3.75.41,7.51-.51,11.19l6.33,2.97c.69.32,1.21.89,1.46,1.6.26.71.22,1.48-.1,2.17l-2.27,4.84c-.32.69-.89,1.21-1.6,1.46-.71.26-1.48.22-2.17-.1l-6.33-2.97c-2.24,3.06-5.02,5.6-8.27,7.55l2.38,6.58c.53,1.47-.23,3.1-1.7,3.63l-5.02,1.82c-.31.11-.64.17-.97.17ZM427.19,261.06c.14,0,.28.09.33.23l2.48,6.85c.19.54.59.97,1.11,1.21.52.24,1.1.27,1.64.07l5.02-1.82c.54-.2.97-.59,1.21-1.1.24-.52.27-1.1.07-1.64h0l-2.48-6.85c-.06-.16,0-.33.15-.42,3.36-1.97,6.21-4.57,8.48-7.74.1-.14.28-.18.43-.11l6.59,3.09c.52.24,1.1.27,1.64.07.54-.19.97-.59,1.21-1.1l2.27-4.84c.24-.52.27-1.1.07-1.64s-.59-.97-1.1-1.21l-6.59-3.09c-.15-.07-.23-.24-.19-.4.98-3.77,1.16-7.63.52-11.47-.03-.17.07-.33.23-.38l6.85-2.48c1.11-.4,1.69-1.63,1.29-2.74l-1.82-5.02c-.2-.54-.59-.97-1.11-1.21-.52-.24-1.1-.27-1.64-.07l-6.85,2.48c-.16.06-.33,0-.42-.15-1.97-3.36-4.57-6.21-7.74-8.48-.14-.1-.18-.28-.11-.43l3.09-6.59c.5-1.07.04-2.35-1.03-2.85l-4.84-2.27c-.52-.24-1.1-.27-1.64-.07-.54.19-.97.59-1.21,1.1l-3.09,6.59c-.07.15-.24.23-.4.19-3.77-.98-7.63-1.16-11.47-.52-.17.03-.33-.07-.38-.23l-2.48-6.85c-.4-1.11-1.63-1.69-2.74-1.28l-5.02,1.82c-1.11.4-1.69,1.63-1.28,2.74l2.48,6.85c.06.16,0,.33-.15.42-3.36,1.97-6.21,4.57-8.48,7.74-.1.14-.28.18-.43.11l-6.59-3.09c-.52-.24-1.1-.27-1.64-.08-.54.19-.97.59-1.21,1.1l-2.27,4.84c-.24.52-.27,1.1-.08,1.64.19.54.59.97,1.1,1.21l6.59,3.09c.15.07.23.24.19.4-.98,3.77-1.16,7.63-.52,11.47.03.17-.07.33-.23.38l-6.85,2.48c-.54.19-.97.59-1.21,1.1-.24.52-.27,1.1-.07,1.64l1.82,5.02c.4,1.11,1.63,1.68,2.74,1.29l6.85-2.48c.16-.06.33,0,.42.15,1.97,3.36,4.57,6.21,7.74,8.48.14.1.18.28.11.43l-3.09,6.59c-.24.52-.27,1.1-.08,1.64.19.54.59.97,1.1,1.21l4.84,2.27c.52.24,1.1.27,1.64.07.54-.19.97-.59,1.21-1.1l3.09-6.59c.07-.15.24-.23.4-.19,3.77.98,7.63,1.16,11.47.52.02,0,.04,0,.06,0ZM422.66,248.45c-5.82,0-11.35-3.45-13.7-9.15h0c-3.11-7.54.49-16.21,8.03-19.32,7.54-3.11,16.21.49,19.32,8.03,3.11,7.54-.49,16.21-8.03,19.32-1.84.76-3.75,1.12-5.63,1.12ZM409.61,239.04c2.97,7.19,11.23,10.62,18.42,7.66,7.19-2.97,10.62-11.23,7.66-18.42-2.97-7.19-11.23-10.62-18.42-7.66-7.19,2.97-10.62,11.23-7.66,18.42h0Z"/>
            <g>
              <path class="cls-8" d="M5.84,270.25c-.35,0-.69-.06-1.02-.18l-5.32-1.93h0c-1.56-.56-2.37-2.29-1.8-3.85l2.52-6.97c-3.45-2.07-6.39-4.76-8.77-8l-6.71,3.14c-.73.34-1.54.38-2.3.1-.76-.27-1.36-.82-1.7-1.55l-2.4-5.13c-.34-.73-.38-1.54-.11-2.3.27-.76.82-1.36,1.55-1.7l6.71-3.14c-.97-3.9-1.15-7.88-.54-11.86l-6.97-2.52c-1.56-.56-2.37-2.29-1.8-3.85l1.93-5.32c.27-.76.82-1.36,1.55-1.7.73-.34,1.54-.38,2.3-.1l6.97,2.52c2.07-3.45,4.76-6.39,8-8.77l-3.14-6.71c-.7-1.5-.05-3.3,1.45-4l5.13-2.4c.73-.34,1.54-.38,2.3-.1.76.27,1.36.82,1.7,1.55l3.14,6.71c3.9-.97,7.88-1.15,11.86-.54l2.52-6.97c.27-.76.82-1.36,1.55-1.7.73-.34,1.54-.38,2.3-.1l5.32,1.93c1.56.56,2.37,2.29,1.8,3.85l-2.52,6.97c3.45,2.07,6.39,4.76,8.77,8l6.71-3.14c.73-.34,1.54-.38,2.3-.11.76.27,1.36.82,1.7,1.55l2.4,5.13c.34.73.38,1.54.1,2.3-.27.76-.82,1.36-1.55,1.7l-6.71,3.14c.97,3.9,1.15,7.88.54,11.86l6.97,2.52c.76.27,1.36.82,1.7,1.55s.38,1.54.1,2.3l-1.93,5.32c-.27.76-.82,1.36-1.55,1.7-.73.34-1.54.38-2.3.1l-6.97-2.52c-2.07,3.45-4.76,6.39-8,8.77l3.14,6.71c.7,1.5.05,3.29-1.45,4l-5.13,2.4c-1.5.7-3.3.05-4-1.45l-3.14-6.71c-3.9.97-7.88,1.16-11.86.54l-2.52,6.97c-.27.76-.82,1.36-1.55,1.7-.41.19-.84.29-1.27.29ZM-.25,267.45l5.32,1.93c.57.2,1.19.18,1.73-.08.55-.26.96-.71,1.17-1.28l2.62-7.25c.06-.17.23-.27.41-.24,4.07.67,8.16.49,12.15-.55.17-.05.35.04.43.2l3.27,6.98c.53,1.13,1.88,1.62,3.02,1.09l5.13-2.4c1.13-.53,1.62-1.88,1.09-3.02l-3.27-6.98c-.08-.16-.03-.35.12-.46,3.35-2.4,6.11-5.43,8.2-8.98.09-.15.28-.22.44-.16l7.25,2.62c.57.21,1.19.18,1.73-.08.55-.26.96-.71,1.17-1.28l1.93-5.32c.21-.57.18-1.19-.08-1.73-.26-.55-.71-.96-1.28-1.17l-7.25-2.63c-.17-.06-.27-.23-.24-.41.67-4.07.49-8.16-.55-12.15-.04-.17.04-.35.2-.43l6.98-3.27c.55-.26.96-.71,1.17-1.28.21-.57.18-1.19-.08-1.73l-2.4-5.13c-.26-.55-.71-.96-1.28-1.17-.57-.21-1.19-.18-1.73.08l-6.98,3.27c-.16.07-.35.03-.46-.12-2.4-3.35-5.43-6.11-8.98-8.2-.15-.09-.22-.28-.16-.44l2.62-7.25c.43-1.18-.19-2.48-1.36-2.91l-5.32-1.93c-.57-.21-1.19-.18-1.73.08-.55.26-.96.71-1.17,1.28l-2.62,7.25c-.06.17-.23.27-.41.24-4.07-.67-8.16-.49-12.15.55-.17.05-.35-.04-.43-.2l-3.27-6.98c-.26-.55-.71-.96-1.28-1.17-.57-.21-1.19-.18-1.73.08l-5.13,2.4c-1.13.53-1.62,1.88-1.09,3.02l3.27,6.98c.08.16.03.35-.12.46-3.35,2.4-6.11,5.43-8.2,8.98-.09.15-.28.22-.44.16l-7.25-2.62c-.57-.21-1.19-.18-1.73.08-.55.26-.96.71-1.17,1.28l-1.93,5.32c-.43,1.18.19,2.48,1.36,2.91l7.25,2.62c.17.06.27.23.24.41-.67,4.07-.49,8.16.55,12.15.04.17-.04.35-.2.43l-6.98,3.27c-.55.26-.96.71-1.17,1.28-.21.57-.18,1.19.08,1.73l2.4,5.13c.26.55.71.96,1.28,1.17.57.21,1.19.18,1.73-.08l6.98-3.27c.16-.07.35-.03.46.12,2.4,3.35,5.43,6.11,8.98,8.2.15.09.22.28.16.44l-2.62,7.25c-.43,1.18.19,2.48,1.36,2.91H-.25ZM15.75,247.16c-1.99,0-4.01-.38-5.96-1.19h0c-7.99-3.3-11.81-12.48-8.51-20.48,3.3-7.99,12.48-11.81,20.48-8.51,7.99,3.3,11.81,12.48,8.51,20.48-2.49,6.04-8.35,9.7-14.51,9.7ZM10.07,245.29c7.62,3.14,16.37-.5,19.51-8.11,3.14-7.62-.5-16.37-8.11-19.51-7.62-3.14-16.37.5-19.51,8.11-3.14,7.62.5,16.37,8.11,19.51h0Z"/>
              <path class="cls-3" d="M14.11,193.37c-.36,0-.72-.1-1.04-.29-.46-.28-.78-.72-.9-1.24l-1.05-4.36c-2.43.1-4.82-.28-7.11-1.11l-2.34,3.83c-.28.46-.72.78-1.24.9-.52.13-1.06.04-1.52-.24l-3-1.83c-.46-.28-.78-.72-.9-1.24-.13-.52-.04-1.06.24-1.52l2.34-3.83c-1.79-1.65-3.21-3.61-4.24-5.81l-4.36,1.05c-1.08.26-2.16-.4-2.42-1.48l-.83-3.42c-.13-.52-.04-1.06.24-1.52.28-.46.72-.78,1.24-.9l4.36-1.05c-.09-2.43.28-4.82,1.11-7.11l-3.83-2.34c-.46-.28-.78-.72-.9-1.24-.13-.52-.04-1.06.24-1.52l1.83-3c.28-.46.72-.78,1.24-.9.52-.12,1.06-.04,1.52.24l3.83,2.34c1.65-1.79,3.61-3.21,5.81-4.24l-1.05-4.36c-.13-.52-.04-1.06.24-1.52.28-.46.72-.78,1.24-.9l3.42-.83c.52-.13,1.06-.04,1.52.24.46.28.78.72.9,1.24l1.05,4.36c2.43-.09,4.82.28,7.11,1.11l2.34-3.83c.28-.46.72-.78,1.24-.9.52-.12,1.06-.04,1.52.24l3,1.83c.46.28.78.72.9,1.24.13.52.04,1.06-.24,1.52l-2.34,3.83c1.79,1.65,3.21,3.61,4.24,5.81l4.36-1.05c.52-.13,1.06-.04,1.52.24.46.28.78.72.9,1.24l.83,3.42c.13.52.04,1.06-.24,1.52-.28.46-.72.78-1.24.9l-4.36,1.05c.09,2.43-.28,4.82-1.11,7.11l3.83,2.34c.46.28.78.72.9,1.24.13.52.04,1.06-.24,1.52l-1.83,3h0c-.58.94-1.81,1.24-2.76.67l-3.83-2.34c-1.65,1.79-3.61,3.21-5.81,4.24l1.05,4.36c.13.52.04,1.06-.24,1.52-.28.46-.72.78-1.24.9l-3.41.83c-.16.04-.32.06-.48.06ZM11.39,186.73c.17,0,.32.12.36.28l1.13,4.65c.08.33.28.61.57.78.29.18.63.23.96.15l3.41-.83c.33-.08.61-.28.78-.57.18-.29.23-.63.15-.96l-1.13-4.65c-.04-.17.05-.35.21-.42,2.32-1.04,4.35-2.52,6.05-4.41.12-.13.32-.16.47-.07l4.09,2.49c.6.36,1.38.17,1.74-.42l1.83-3c.36-.6.18-1.38-.42-1.74l-4.09-2.49c-.15-.09-.22-.28-.15-.45.91-2.37,1.3-4.86,1.16-7.4,0-.18.11-.34.28-.38l4.65-1.13c.33-.08.61-.28.78-.57.18-.29.23-.63.15-.96l-.83-3.42c-.08-.33-.28-.61-.57-.78s-.63-.23-.96-.15l-4.65,1.13c-.17.04-.35-.05-.42-.21-1.04-2.32-2.52-4.35-4.41-6.05-.13-.12-.16-.31-.07-.47l2.49-4.09c.18-.29.23-.63.15-.96s-.28-.61-.57-.78l-3-1.83c-.6-.37-1.38-.18-1.74.42l-2.49,4.09c-.09.15-.28.22-.45.15-2.37-.91-4.87-1.3-7.4-1.16-.18,0-.34-.11-.38-.28l-1.13-4.65c-.08-.33-.28-.61-.57-.78-.29-.18-.63-.23-.96-.15l-3.42.83c-.33.08-.61.28-.78.57-.18.29-.23.63-.15.96l1.13,4.65c.04.17-.05.35-.21.42-2.32,1.04-4.35,2.52-6.05,4.41-.12.13-.32.16-.47.07l-4.09-2.49c-.29-.18-.63-.23-.96-.15-.33.08-.61.28-.78.57l-1.83,3c-.36.6-.18,1.38.42,1.74l4.09,2.49c.15.09.22.28.15.45-.91,2.37-1.3,4.86-1.16,7.4,0,.18-.11.34-.28.38l-4.65,1.13c-.33.08-.61.28-.78.57-.18.29-.23.63-.15.96l.83,3.42c.16.68.85,1.1,1.53.93l4.65-1.13c.18-.04.35.05.42.21,1.04,2.32,2.52,4.35,4.41,6.05.13.12.16.31.07.47l-2.49,4.09c-.18.29-.23.63-.15.96s.28.61.57.78l3,1.83c.6.37,1.38.18,1.74-.42l2.49-4.09c.09-.15.28-.21.45-.15,2.37.91,4.86,1.3,7.4,1.16,0,0,.01,0,.02,0ZM30.5,182.95h0,0ZM10.4,178.5c-1.89,0-3.81-.54-5.5-1.68-2.19-1.47-3.67-3.71-4.18-6.3-.51-2.59.03-5.22,1.5-7.41,1.47-2.19,3.71-3.67,6.3-4.18,2.59-.51,5.22.03,7.41,1.5,2.19,1.47,3.67,3.71,4.18,6.3.51,2.59-.03,5.22-1.5,7.41-1.9,2.83-5.03,4.36-8.2,4.36ZM10.44,159.49c-.59,0-1.18.06-1.77.17-2.39.47-4.46,1.84-5.82,3.86-2.81,4.18-1.7,9.86,2.48,12.68,4.18,2.81,9.87,1.7,12.68-2.48,2.81-4.18,1.7-9.86-2.48-12.68-1.52-1.03-3.28-1.56-5.08-1.56Z"/>
            </g>
            <path class="cls-6" d="M425.08,197.16c-.25,0-.49-.05-.73-.15-.47-.19-.83-.56-1.02-1.03l-1.61-3.91c-2.26.44-4.54.43-6.79-.02l-1.63,3.9c-.4.96-1.51,1.42-2.48,1.02l-3.06-1.28c-.47-.19-.83-.56-1.02-1.03-.19-.47-.19-.98,0-1.45l1.63-3.9c-1.9-1.29-3.51-2.91-4.79-4.81l-3.91,1.61h0c-.96.4-2.07-.07-2.47-1.03l-1.26-3.07c-.4-.97.07-2.07,1.03-2.47l3.91-1.61c-.44-2.26-.43-4.54.02-6.79l-3.9-1.63c-.47-.19-.83-.56-1.02-1.03-.19-.47-.19-.98,0-1.45l1.28-3.06c.2-.47.56-.83,1.03-1.02.47-.19.98-.19,1.45,0l3.9,1.63c1.29-1.9,2.9-3.51,4.81-4.79l-1.61-3.91c-.4-.97.07-2.07,1.03-2.47l3.07-1.26c.47-.19.98-.19,1.45,0,.47.19.83.56,1.02,1.03l1.61,3.91c2.26-.44,4.54-.43,6.79.02l1.63-3.9c.4-.96,1.51-1.42,2.48-1.02l3.06,1.28c.47.19.83.56,1.02,1.03.19.47.19.98,0,1.45l-1.63,3.91c1.9,1.29,3.51,2.9,4.79,4.81l3.91-1.61c.97-.4,2.07.07,2.47,1.03l1.26,3.07c.4.97-.07,2.07-1.03,2.47l-3.91,1.61c.44,2.26.43,4.54-.02,6.79l3.9,1.63c.47.19.83.56,1.02,1.03.19.47.19.98,0,1.45l-1.28,3.06c-.4.96-1.52,1.42-2.48,1.02l-3.9-1.63c-1.29,1.9-2.9,3.51-4.81,4.79l1.61,3.91c.19.47.19.98,0,1.45-.19.47-.56.83-1.03,1.02l-3.07,1.26c-.23.1-.48.14-.72.14ZM421.94,191.33c.14,0,.27.08.32.22l1.72,4.18c.12.3.35.53.65.65.3.12.62.12.92,0l3.07-1.26c.3-.12.53-.35.65-.65.12-.3.12-.62,0-.92l-1.72-4.18c-.06-.16,0-.33.13-.42,2.01-1.3,3.7-2.98,5.01-4.99.09-.14.27-.2.43-.13l4.17,1.74c.61.25,1.31-.04,1.57-.64l1.28-3.06c.12-.3.12-.62,0-.92-.12-.3-.35-.53-.65-.65l-4.17-1.74c-.16-.06-.24-.23-.21-.39.5-2.34.51-4.72.02-7.07-.03-.16.05-.33.21-.39l4.18-1.72c.61-.25.9-.95.65-1.56l-1.26-3.07c-.25-.61-.95-.9-1.56-.65l-4.18,1.72c-.16.06-.33,0-.42-.13-1.3-2.01-2.98-3.7-4.99-5.01-.14-.09-.2-.27-.13-.43l1.74-4.17c.12-.3.12-.62,0-.92-.12-.3-.35-.53-.65-.65l-3.06-1.28c-.61-.25-1.31.03-1.57.64l-1.74,4.17c-.06.16-.23.24-.39.21-2.34-.5-4.72-.51-7.07-.02-.16.03-.33-.05-.39-.21l-1.72-4.18c-.12-.3-.35-.53-.65-.65-.29-.12-.62-.12-.92,0l-3.07,1.26c-.61.25-.9.95-.65,1.56l1.72,4.18c.06.16,0,.33-.13.42-2.01,1.3-3.7,2.98-5.01,4.99-.09.14-.27.19-.43.13l-4.17-1.74c-.3-.12-.62-.12-.92,0-.3.12-.53.35-.65.65l-1.28,3.06c-.12.3-.12.62,0,.92.12.3.35.53.65.65l4.17,1.74c.16.06.24.23.21.39-.5,2.34-.51,4.72-.02,7.07.03.16-.05.33-.21.39l-4.18,1.72c-.61.25-.9.95-.65,1.56l1.26,3.07c.25.61.95.9,1.56.65l4.18-1.72c.16-.06.33,0,.42.13,1.3,2.01,2.98,3.7,4.99,5.01.14.09.2.27.13.43l-1.74,4.17c-.12.3-.12.62,0,.92.12.3.35.53.65.65l3.06,1.28c.61.25,1.31-.04,1.57-.64l1.74-4.17c.06-.15.23-.24.39-.21,2.35.5,4.72.51,7.07.02.02,0,.05,0,.07,0ZM399.54,185.8h0,0ZM418.38,183.91c-1.08,0-2.16-.19-3.21-.57-2.34-.86-4.2-2.57-5.25-4.83-2.16-4.66-.13-10.21,4.53-12.37,2.26-1.05,4.79-1.15,7.12-.3,2.34.86,4.2,2.57,5.25,4.83,2.16,4.66.13,10.21-4.53,12.37-1.25.58-2.58.87-3.92.87ZM418.37,165.97c-1.24,0-2.47.27-3.62.81-2.09.97-3.67,2.69-4.47,4.86s-.69,4.5.28,6.59c.97,2.09,2.69,3.67,4.86,4.47,2.16.79,4.5.69,6.59-.28,4.31-2,6.19-7.14,4.19-11.45-.97-2.09-2.69-3.67-4.86-4.47-.97-.35-1.97-.53-2.97-.53Z"/>
          </g>
          <g>
            <path class="cls-5" d="M362.78,19.92h0c-.16,0-.31-.09-.38-.23l-1.41-2.59-2.59-1.42c-.14-.08-.22-.22-.22-.38,0-.16.09-.3.23-.38l2.59-1.41,1.42-2.59c.08-.14.22-.22.38-.22h0c.16,0,.31.09.38.23l1.41,2.59,2.59,1.42c.14.08.22.22.22.38s-.09.3-.23.38l-2.59,1.41-1.42,2.59c-.08.14-.22.22-.38.22ZM359.52,15.3l2,1.1c.07.04.13.1.17.17l1.09,2.01,1.1-2c.04-.07.1-.13.17-.17l2.01-1.09-2-1.1c-.07-.04-.13-.1-.17-.17l-1.09-2.01-1.1,2c-.04.07-.1.13-.17.17l-2.01,1.09Z"/>
            <path class="cls-7" d="M89.45,29.8h0c-.16,0-.3-.09-.38-.23l-1.41-2.59-2.59-1.42c-.14-.08-.23-.22-.22-.38,0-.16.09-.3.23-.38l2.59-1.41,1.42-2.59c.08-.14.22-.22.38-.22.18,0,.31.09.38.23l1.41,2.59,2.59,1.42c.14.08.23.22.22.38,0,.16-.09.3-.23.38l-2.59,1.41-1.42,2.59c-.08.14-.22.22-.38.22ZM86.19,25.18l2,1.1c.07.04.13.1.17.17l1.09,2.01,1.1-2c.04-.07.1-.13.17-.17l2.01-1.09-2-1.1c-.07-.04-.13-.1-.17-.17l-1.09-2.01-1.1,2c-.04.07-.1.13-.17.17l-2.01,1.09Z"/>
            <path d="M20.73,80.3c-.13.02-.31-.09-.38-.23l-1.41-2.59-2.59-1.42c-.14-.08-.23-.22-.22-.38,0-.16.09-.3.23-.38l2.59-1.41,1.42-2.59c.08-.14.23-.2.38-.22.16,0,.3.09.38.23l1.41,2.59,2.59,1.42c.14.08.23.22.22.38,0,.16-.09.3-.23.38l-2.59,1.41-1.42,2.59c-.08.14-.22.22-.38.22ZM17.47,75.68l2,1.1c.07.04.13.1.17.17l1.09,2.01,1.1-2c.04-.07.1-.13.17-.17l2.01-1.09-2-1.1c-.07-.04-.13-.1-.17-.17l-1.09-2.01-1.1,2c-.04.07-.1.13-.17.17l-2.01,1.09Z"/>
            <path d="M416.48,69.93h0c-.16,0-.3-.09-.38-.23l-2.12-3.9-3.89-2.14c-.14-.08-.22-.22-.22-.38,0-.16.09-.3.23-.38l3.9-2.12,2.14-3.89c.08-.14.22-.22.38-.22h0c.16,0,.3.09.38.23l2.12,3.9,3.89,2.14c.14.08.23.22.22.38,0,.16-.09.3-.23.38l-3.9,2.12-2.14,3.89c-.08.14-.22.22-.38.22ZM411.2,63.28l3.3,1.82c.07.04.13.1.17.17l1.8,3.31,1.82-3.3c.04-.07.1-.13.17-.17l3.31-1.8-3.3-1.82c-.07-.04-.13-.1-.17-.17l-1.8-3.31-1.82,3.3c-.04.07-.1.13-.17.17l-3.31,1.8Z"/>
            <path class="cls-4" d="M326.34,35.19h0c-.16,0-.3-.09-.38-.23l-2.12-3.9-3.89-2.14c-.14-.08-.22-.22-.22-.38,0-.16.09-.3.23-.38l3.9-2.12,2.14-3.89c.08-.14.22-.22.38-.22h0c.16,0,.3.09.38.23l2.12,3.9,3.89,2.14c.14.08.23.22.22.38,0,.16-.09.3-.23.38l-3.9,2.12-2.14,3.89c-.08.14-.22.22-.38.22ZM321.06,28.55l3.3,1.82c.07.04.13.1.17.17l1.8,3.31,1.82-3.3c.04-.07.1-.13.17-.17l3.31-1.8-3.3-1.82c-.07-.04-.13-.1-.17-.17l-1.8-3.31-1.82,3.3c-.04.07-.1.13-.17.17l-3.31,1.8Z"/>
            <path class="cls-9" d="M42.28,19.06h0c-.16,0-.3-.09-.38-.23l-1.41-2.6-2.6-1.43c-.14-.08-.23-.22-.22-.38,0-.16.09-.3.23-.38l2.6-1.41,1.43-2.6c.08-.14.22-.22.38-.22h0c.16,0,.3.09.38.23l1.41,2.6,2.59,1.43c.14.08.23.22.22.38s-.09.3-.23.38l-2.6,1.41-1.43,2.59c-.08.14-.22.22-.38.22ZM39,14.42l2.01,1.11c.07.04.13.1.17.17l1.1,2.02,1.11-2.01c.04-.07.1-.13.17-.17l2.02-1.1-2.01-1.11c-.07-.04-.13-.1-.17-.17l-1.1-2.02-1.11,2.01c-.04.07-.1.13-.17.17l-2.02,1.1Z"/>
          </g>
        </g>
      </g>
    </g>
  </g>
</svg>