<?xml version="1.0" encoding="UTF-8"?>
<svg id="Layer_2" data-name="Layer 2" xmlns="http://www.w3.org/2000/svg" viewBox="0 0 408.41 65.18">
  <defs>
    <style>
      .cls-1 {
        stroke: #1c41e6;
      }

      .cls-1, .cls-2 {
        stroke-miterlimit: 10;
      }

      .cls-1, .cls-3 {
        fill: #1c41e6;
      }

      .cls-2 {
        fill: #161630;
        stroke: #161630;
      }
    </style>
  </defs>
  <g id="Layer_6" data-name="Layer 6">
    <g>
      <g>
        <path class="cls-3" d="M90.19,15.79h13.21l-7.86,47.09h-13.21l.54-3.2c-3.35,3.01-7.76,4.52-13.22,4.52-6.75,0-11.65-2.62-14.69-7.87-3.04-5.24-3.94-11.29-2.69-18.13,1.13-6.47,3.92-12.04,8.36-16.72,4.44-4.68,9.92-7.02,16.44-7.02,5.52,0,9.62,2.1,12.32,6.31l.8-4.99ZM67.89,47.72c1.58,2.07,3.9,3.11,6.95,3.11s5.73-1.04,8.02-3.11c2.29-2.07,3.74-4.83,4.33-8.29v-.09c.59-3.52.09-6.31-1.52-8.38-1.61-2.07-3.94-3.11-7-3.11s-5.71,1.04-7.98,3.11c-2.27,2.07-3.7,4.87-4.29,8.38-.6,3.52-.1,6.31,1.48,8.38Z"/>
        <path class="cls-3" d="M121.08,64.2c-10.24,0-17.21-3.86-20.89-11.59l13.4-6.4c1.44,3.58,4.38,5.37,8.81,5.37,3.37,0,5.19-.81,5.46-2.45.2-1-.52-1.85-2.17-2.54-1.65-.69-3.66-1.35-6.04-1.98-2.38-.63-4.71-1.44-6.98-2.45-2.28-1-4.08-2.65-5.39-4.94-1.32-2.29-1.64-5.13-.97-8.52.6-3.2,2.03-5.9,4.28-8.1,2.25-2.2,4.8-3.77,7.64-4.71,2.84-.94,5.82-1.41,8.92-1.41,4.36,0,8.21.89,11.54,2.68,3.33,1.79,5.79,4.25,7.37,7.39l-13.4,6.31c-1.18-2.76-3.33-4.14-6.43-4.14s-4.66.97-5.06,2.92c-.27,1.26.41,2.23,2.02,2.92,1.62.69,3.62,1.3,5.99,1.84,2.38.53,4.72,1.26,7.03,2.17,2.31.91,4.12,2.51,5.44,4.8,1.32,2.29,1.64,5.23.97,8.81-.94,4.77-3.36,8.3-7.26,10.6-3.91,2.29-8.67,3.44-14.28,3.44Z"/>
        <path class="cls-3" d="M170.1,29.35l-2.98,16.68c-.38,1.95.15,3.17,1.59,3.67,1.44.5,3.92.63,7.44.38l-2.29,12.81c-8.42.94-14.32.03-17.67-2.73-3.36-2.76-4.43-7.47-3.23-14.13l2.98-16.67h-7.54l2.48-13.56h7.48l1.6-8.94,14.91-4.23-2.35,13.18h9.8l-2.48,13.56h-9.74Z"/>
        <path class="cls-3" d="M208.54,14.47c6.59,0,11.82,2.39,15.7,7.16,3.88,4.77,5.19,10.68,3.92,17.71-.3,2.01-.78,3.89-1.44,5.65h-31.88c.64,4.4,3.7,6.59,9.16,6.59,3.74,0,6.86-1.22,9.36-3.67l9.33,8.1c-5.12,5.46-11.66,8.19-19.61,8.19-7.54,0-13.25-2.48-17.13-7.44-3.88-4.96-5.25-11.08-4.1-18.37,1.02-6.84,4.07-12.54,9.12-17.1,5.06-4.55,10.91-6.83,17.56-6.83ZM195.8,34.25h18.88c-.4-4.83-3.07-7.25-8-7.25s-8.55,2.42-10.88,7.25Z"/>
        <path class="cls-3" d="M248.73,24.24c1.39-3.07,3.5-5.4,6.33-7,2.83-1.6,7.44-2.28,10.96-2.28l-4.97,15.41c-1.88.13-3.4.24-5.5.68-2.11.44-4.15,1.55-6.14,3.34-1.99,1.79-3.24,4.19-3.75,7.21l.11-.64-3.9,21.92h-14.15l8.37-47.09h14.15l-1.5,8.45Z"/>
        <polygon class="cls-3" points="55.5 13.56 59.96 0 12.44 0 10.33 11.03 21.16 13.59 9.17 17.1 0 65.18 17.98 60.09 21.9 39.02 45.47 39.02 49.93 25.45 24.5 25.45 26.78 13.56 55.5 13.56"/>
      </g>
      <g>
        <path class="cls-2" d="M256.16,62.74c-.83,0-1.55-.29-2.13-.88-.59-.59-.88-1.3-.88-2.13s.29-1.54.88-2.13,1.3-.88,2.13-.88,1.58.29,2.16.88c.57.59.86,1.3.86,2.13s-.29,1.55-.86,2.13c-.57.59-1.29.88-2.16.88Z"/>
        <path class="cls-1" d="M272.98,62.83c-3.49,0-6.39-1.17-8.71-3.5-2.32-2.33-3.48-5.23-3.48-8.69s1.16-6.36,3.48-8.69c2.32-2.33,5.22-3.5,8.71-3.5,2.29,0,4.34.55,6.16,1.64,1.82,1.1,3.18,2.57,4.08,4.42l-3.38,1.95c-.59-1.24-1.49-2.22-2.71-2.97-1.22-.74-2.6-1.11-4.15-1.11-2.32,0-4.26.79-5.82,2.36s-2.34,3.54-2.34,5.88.78,4.26,2.34,5.84,3.5,2.36,5.82,2.36c1.54,0,2.93-.36,4.17-1.09,1.24-.73,2.18-1.71,2.83-2.94l3.43,1.99c-.99,1.82-2.41,3.28-4.26,4.38-1.85,1.1-3.91,1.64-6.16,1.64Z"/>
        <path class="cls-1" d="M306.54,59.31c-2.38,2.35-5.27,3.52-8.66,3.52s-6.28-1.17-8.64-3.52-3.55-5.24-3.55-8.67,1.18-6.32,3.55-8.67c2.36-2.35,5.24-3.52,8.64-3.52s6.29,1.17,8.66,3.52c2.38,2.35,3.57,5.24,3.57,8.67s-1.19,6.32-3.57,8.67ZM297.88,58.89c2.32,0,4.26-.79,5.84-2.36s2.36-3.54,2.36-5.88-.79-4.31-2.36-5.88-3.52-2.36-5.84-2.36-4.22.79-5.79,2.36c-1.58,1.58-2.36,3.54-2.36,5.88s.79,4.31,2.36,5.88c1.58,1.58,3.51,2.36,5.79,2.36Z"/>
        <path class="cls-1" d="M338.13,38.46c2.6,0,4.69.84,6.3,2.52,1.61,1.68,2.41,3.96,2.41,6.83v14.41h-4.03v-14.27c0-1.79-.46-3.18-1.39-4.17-.93-.99-2.16-1.48-3.71-1.48-1.73,0-3.11.58-4.15,1.74s-1.55,2.93-1.55,5.31v12.88h-4.03v-14.27c0-1.79-.44-3.18-1.32-4.17s-2.08-1.48-3.59-1.48c-1.7,0-3.11.59-4.24,1.76-1.13,1.17-1.69,2.93-1.69,5.28v12.88h-4.03v-23.17h4.03v3.1c1.58-2.47,3.88-3.71,6.9-3.71s5.39,1.31,6.81,3.94c1.61-2.63,4.03-3.94,7.28-3.94Z"/>
        <path class="cls-2" d="M354.07,62.74c-.83,0-1.55-.29-2.13-.88-.59-.59-.88-1.3-.88-2.13s.29-1.54.88-2.13,1.3-.88,2.13-.88,1.58.29,2.16.88c.57.59.86,1.3.86,2.13s-.29,1.55-.86,2.13c-.57.59-1.29.88-2.16.88Z"/>
        <path class="cls-1" d="M379.19,39.06h4.03v23.17h-4.03v-3.99c-2.01,3.06-4.93,4.59-8.76,4.59-3.24,0-6.01-1.18-8.29-3.54-2.29-2.36-3.43-5.24-3.43-8.64s1.14-6.28,3.43-8.64c2.29-2.36,5.05-3.54,8.29-3.54,3.83,0,6.75,1.53,8.76,4.59v-3.99ZM370.94,58.94c2.35,0,4.31-.8,5.88-2.39,1.57-1.59,2.36-3.56,2.36-5.91s-.79-4.32-2.36-5.91c-1.58-1.59-3.54-2.39-5.88-2.39s-4.26.8-5.84,2.39c-1.58,1.59-2.36,3.56-2.36,5.91s.79,4.32,2.36,5.91c1.58,1.59,3.52,2.39,5.84,2.39Z"/>
        <path class="cls-1" d="M403.88,39.06h4.03v23.17h-4.03v-3.34c-1.64,2.63-4.14,3.94-7.51,3.94-2.72,0-4.9-.86-6.53-2.57-1.64-1.71-2.46-4.04-2.46-6.97v-14.23h4.03v13.99c0,1.88.51,3.34,1.53,4.38s2.42,1.55,4.22,1.55c2.01,0,3.63-.63,4.87-1.88,1.24-1.25,1.85-3.17,1.85-5.77v-12.28Z"/>
      </g>
    </g>
  </g>
</svg>